<svg width="500" height="500" xmlns="http://www.w3.org/2000/svg" version="1.1">

 <g>
  <title>Layer 1</title>
  <path fill="#2b2d42" id="svg_25" d="m467.70299,172.3c6.1836,0 11.199,-5.0195 11.199,-11.199l0,-86.801c0,-18.531 -15.07,-33.602 -33.602,-33.602l-390.6,0c-18.531,0 -33.602,15.07 -33.602,33.602l0,351.4c0,18.531 15.07,33.602 33.602,33.602l390.6,0c18.531,0 33.602,-15.07 33.602,-33.602l0,-222.36c0,-6.1836 -5.0195,-11.199 -11.199,-11.199c-6.1836,0 -11.199,5.0195 -11.199,11.199l0,222.36c0,6.1758 -5.0234,11.199 -11.199,11.199l-280.7,0l0,-264.6l303.098,0.001zm-325.5,264.6l-87.5,0c-6.1758,0 -11.199,-5.0234 -11.199,-11.199l0,-253.4l98.699,0l0,264.599zm-98.699,-287l0,-75.602c0,-6.1758 5.0234,-11.199 11.199,-11.199l390.6,0c6.1758,0 11.199,5.0234 11.199,11.199l0,75.602l-412.998,0zm371.71,-60.664c-9.2617,0 -16.801,7.5391 -16.801,16.801c0,9.2617 7.5391,16.801 16.801,16.801s16.801,-7.5391 16.801,-16.801c-0.00391,-9.2617 -7.5391,-16.801 -16.801,-16.801zm-56,0c-9.2617,0 -16.801,7.5391 -16.801,16.801c0,9.2617 7.5391,16.801 16.801,16.801s16.801,-7.5391 16.801,-16.801c-0.00391,-9.2617 -7.5391,-16.801 -16.801,-16.801zm-56,0c-9.2617,0 -16.801,7.5391 -16.801,16.801c0,9.2617 7.5391,16.801 16.801,16.801s16.801,-7.5391 16.801,-16.801c-0.00391,-9.2617 -7.5391,-16.801 -16.801,-16.801z"/>
 </g>
</svg>